<svg width="36" height="36" viewBox="0 0 36 36" fill="none" xmlns="http://www.w3.org/2000/svg">
<path d="M32 0H4C1.79086 0 0 1.79086 0 4V32C0 34.2091 1.79086 36 4 36H32C34.2091 36 36 34.2091 36 32V4C36 1.79086 34.2091 0 32 0Z" fill="#5EADF2" fill-opacity="0.3"/>
<path fill-rule="evenodd" clip-rule="evenodd" d="M9.29878 14.976H13.0293V27.0004H9.29878V14.976ZM15.3677 14.9758H18.9452V16.6184H18.9993C19.4941 15.6738 20.7135 14.6794 22.5272 14.6794C26.3027 14.6794 27.0002 17.168 27.0002 20.4077V27.0001H23.2743V21.1545C23.2743 19.7596 23.2473 17.9642 21.3348 17.9642C19.3953 17.9642 19.0983 19.4852 19.0983 21.0508V27H15.3677V14.9758ZM11.1645 9C12.3569 9 13.3245 9.97217 13.3245 11.1648C13.3245 12.3619 12.3569 13.3334 11.1645 13.3334C9.96747 13.3334 9 12.3619 9 11.1648C9 9.97206 9.96736 9 11.1645 9Z" fill="white"/>
</svg>
