<svg width="36" height="36" viewBox="0 0 36 36" fill="none" xmlns="http://www.w3.org/2000/svg">
<path d="M32 0H4C1.79086 0 0 1.79086 0 4V32C0 34.2091 1.79086 36 4 36H32C34.2091 36 36 34.2091 36 32V4C36 1.79086 34.2091 0 32 0Z" fill="#5EADF2" fill-opacity="0.3"/>
<path d="M9.31793 17.7969L13.4655 19.3773L15.0709 24.6482C15.1736 24.9858 15.5779 25.1106 15.8463 24.8866L18.1582 22.9624C18.4006 22.7608 18.7457 22.7508 18.999 22.9384L23.1689 26.0292C23.456 26.2423 23.8627 26.0817 23.9347 25.7275L26.9894 10.7265C27.068 10.3396 26.6956 10.0169 26.3348 10.1593L9.31307 16.8632C8.89301 17.0286 8.89667 17.6358 9.31793 17.7969ZM14.8121 18.5361L22.918 13.4391C23.0637 13.3478 23.2136 13.5489 23.0885 13.6674L16.3988 20.0159C16.1636 20.2394 16.012 20.5384 15.969 20.863L15.7411 22.5871C15.7109 22.8173 15.3942 22.8402 15.332 22.6174L14.4556 19.4735C14.3552 19.1149 14.5015 18.7318 14.8121 18.5361Z" fill="white"/>
</svg>
