<svg width="36" height="36" viewBox="0 0 36 36" fill="none" xmlns="http://www.w3.org/2000/svg">
<path d="M32 0H4C1.79086 0 0 1.79086 0 4V32C0 34.2091 1.79086 36 4 36H32C34.2091 36 36 34.2091 36 32V4C36 1.79086 34.2091 0 32 0Z" fill="#5EADF2" fill-opacity="0.3"/>
<path fill-rule="evenodd" clip-rule="evenodd" d="M14.6543 24.9C21.4466 24.9 25.1633 19.3583 25.1633 14.5606C25.1633 14.4047 25.1633 14.2488 25.1561 14.0929C25.8764 13.5827 26.503 12.9378 27 12.2079C26.3373 12.4984 25.6242 12.6898 24.8751 12.7819C25.6387 12.3354 26.2221 11.6197 26.503 10.7693C25.7899 11.1874 24.9976 11.485 24.1549 11.648C23.4778 10.9394 22.5198 10.5 21.461 10.5C19.4226 10.5 17.7659 12.1299 17.7659 14.1354C17.7659 14.4189 17.8019 14.6953 17.8595 14.9646C14.7911 14.8157 12.0684 13.363 10.2461 11.1661C9.92917 11.7047 9.7491 12.3283 9.7491 12.9945C9.7491 14.2559 10.4046 15.3685 11.3914 16.0205C10.7863 15.9992 10.2173 15.8362 9.72029 15.5669C9.72029 15.5811 9.72029 15.5953 9.72029 15.6165C9.72029 17.374 10.9952 18.848 12.6807 19.1811C12.3709 19.2661 12.0468 19.3087 11.7083 19.3087C11.4706 19.3087 11.2401 19.2874 11.0168 19.2449C11.485 20.6905 12.8535 21.7394 14.467 21.7677C13.1993 22.7457 11.6074 23.3268 9.87875 23.3268C9.58343 23.3268 9.28812 23.3126 9 23.2772C10.6279 24.2976 12.5726 24.9 14.6543 24.9Z" fill="white"/>
</svg>
