<svg width="36" height="36" viewBox="0 0 36 36" fill="none" xmlns="http://www.w3.org/2000/svg">
<path d="M32 0H4C1.79086 0 0 1.79086 0 4V32C0 34.2091 1.79086 36 4 36H32C34.2091 36 36 34.2091 36 32V4C36 1.79086 34.2091 0 32 0Z" fill="#5EADF2" fill-opacity="0.3"></path>
<path fill-rule="evenodd" clip-rule="evenodd" d="M19.633 27V18.9318H22.4208L22.8366 15.6823H19.6331V13.6124C19.6331 12.6721 19.8932 12.0331 21.2349 12.0331H22.95V9.12573C22.6523 9.09009 21.6364 9 20.4551 9C17.9842 9 16.2925 10.5119 16.2925 13.293V15.6823H13.5V18.9318H16.2924V27H19.633Z" fill="white"></path>
</svg>
