<svg width="185" height="49" viewBox="0 0 185 49" fill="none" xmlns="http://www.w3.org/2000/svg">
<path d="M88.2841 15.0909V34H86.0682L75.7642 19.1534H75.5795V34H73.2898V15.0909H75.5057L85.8466 29.9745H86.0312V15.0909H88.2841ZM96.7438 34.3324C95.8451 34.3324 95.0295 34.1631 94.2971 33.8246C93.5646 33.4799 92.9829 32.9844 92.552 32.3381C92.1212 31.6856 91.9057 30.8978 91.9057 29.9745C91.9057 29.162 92.0658 28.5033 92.3858 27.9986C92.7059 27.4877 93.1337 27.0876 93.6692 26.7983C94.2047 26.509 94.7956 26.2936 95.4419 26.152C96.0944 26.0043 96.7499 25.8873 97.4086 25.8012C98.2703 25.6904 98.9689 25.6073 99.5044 25.5519C100.046 25.4903 100.44 25.3888 100.686 25.2472C100.939 25.1056 101.065 24.8594 101.065 24.5086V24.4347C101.065 23.5237 100.816 22.8158 100.317 22.3111C99.8245 21.8064 99.0766 21.554 98.0733 21.554C97.0331 21.554 96.2175 21.7818 95.6266 22.2373C95.0357 22.6927 94.6202 23.179 94.3801 23.6961L92.312 22.9574C92.6813 22.0957 93.1737 21.4247 93.7892 20.9446C94.4109 20.4584 95.088 20.1198 95.8205 19.929C96.5591 19.732 97.2855 19.6336 97.9995 19.6336C98.455 19.6336 98.9782 19.689 99.5691 19.7997C100.166 19.9044 100.742 20.1229 101.296 20.4553C101.856 20.7877 102.32 21.2893 102.69 21.9603C103.059 22.6312 103.244 23.5299 103.244 24.6563V34H101.065V32.0796H100.954C100.806 32.3873 100.56 32.7167 100.215 33.0675C99.8707 33.4184 99.4121 33.7169 98.8397 33.9631C98.2672 34.2093 97.5686 34.3324 96.7438 34.3324ZM97.0762 32.375C97.9379 32.375 98.6642 32.2058 99.2551 31.8672C99.8522 31.5287 100.302 31.0917 100.603 30.5561C100.911 30.0206 101.065 29.4574 101.065 28.8665V26.8722C100.972 26.983 100.769 27.0846 100.455 27.1769C100.148 27.2631 99.7907 27.34 99.3844 27.4077C98.9843 27.4693 98.5935 27.5247 98.2118 27.5739C97.8364 27.617 97.5317 27.6539 97.2978 27.6847C96.7315 27.7586 96.2021 27.8786 95.7097 28.0448C95.2234 28.2048 94.8295 28.448 94.5279 28.7742C94.2324 29.0943 94.0847 29.5313 94.0847 30.0853C94.0847 30.8424 94.3648 31.4148 94.9249 31.8026C95.4912 32.1842 96.2083 32.375 97.0762 32.375ZM106.815 34V32.3381L114.866 21.9972V21.8495H107.073V19.8182H117.673V21.554L109.843 31.8211V31.9688H117.931V34H106.815ZM132.884 19.8182L127.64 34H125.424L120.179 19.8182H122.543L126.458 31.1194H126.605L130.52 19.8182H132.884ZM139.502 34.3324C138.603 34.3324 137.787 34.1631 137.055 33.8246C136.322 33.4799 135.741 32.9844 135.31 32.3381C134.879 31.6856 134.664 30.8978 134.664 29.9745C134.664 29.162 134.824 28.5033 135.144 27.9986C135.464 27.4877 135.892 27.0876 136.427 26.7983C136.963 26.509 137.553 26.2936 138.2 26.152C138.852 26.0043 139.508 25.8873 140.166 25.8012C141.028 25.6904 141.727 25.6073 142.262 25.5519C142.804 25.4903 143.198 25.3888 143.444 25.2472C143.696 25.1056 143.823 24.8594 143.823 24.5086V24.4347C143.823 23.5237 143.573 22.8158 143.075 22.3111C142.582 21.8064 141.834 21.554 140.831 21.554C139.791 21.554 138.975 21.7818 138.384 22.2373C137.794 22.6927 137.378 23.179 137.138 23.6961L135.07 22.9574C135.439 22.0957 135.932 21.4247 136.547 20.9446C137.169 20.4584 137.846 20.1198 138.578 19.929C139.317 19.732 140.043 19.6336 140.757 19.6336C141.213 19.6336 141.736 19.689 142.327 19.7997C142.924 19.9044 143.499 20.1229 144.053 20.4553C144.614 20.7877 145.078 21.2893 145.448 21.9603C145.817 22.6312 146.002 23.5299 146.002 24.6563V34H143.823V32.0796H143.712C143.564 32.3873 143.318 32.7167 142.973 33.0675C142.628 33.4184 142.17 33.7169 141.597 33.9631C141.025 34.2093 140.326 34.3324 139.502 34.3324ZM139.834 32.375C140.696 32.375 141.422 32.2058 142.013 31.8672C142.61 31.5287 143.059 31.0917 143.361 30.5561C143.669 30.0206 143.823 29.4574 143.823 28.8665V26.8722C143.73 26.983 143.527 27.0846 143.213 27.1769C142.905 27.2631 142.548 27.34 142.142 27.4077C141.742 27.4693 141.351 27.5247 140.97 27.5739C140.594 27.617 140.289 27.6539 140.056 27.6847C139.489 27.7586 138.96 27.8786 138.468 28.0448C137.981 28.2048 137.587 28.448 137.286 28.7742C136.99 29.0943 136.843 29.5313 136.843 30.0853C136.843 30.8424 137.123 31.4148 137.683 31.8026C138.249 32.1842 138.966 32.375 139.834 32.375ZM152.158 25.4688V34H149.979V19.8182H152.084V22.0341H152.268C152.601 21.314 153.106 20.7354 153.783 20.2983C154.46 19.8551 155.334 19.6336 156.405 19.6336C157.365 19.6336 158.205 19.8305 158.925 20.2245C159.646 20.6123 160.206 21.2032 160.606 21.9972C161.006 22.7851 161.206 23.7822 161.206 24.9887V34H159.027V25.1364C159.027 24.0223 158.738 23.1544 158.159 22.5327C157.58 21.9049 156.786 21.5909 155.777 21.5909C155.081 21.5909 154.46 21.7417 153.912 22.0434C153.37 22.345 152.942 22.7851 152.629 23.3637C152.315 23.9423 152.158 24.644 152.158 25.4688ZM165.188 34V19.8182H167.367V34H165.188ZM166.296 17.4546C165.871 17.4546 165.505 17.3099 165.197 17.0206C164.895 16.7313 164.744 16.3836 164.744 15.9773C164.744 15.5711 164.895 15.2233 165.197 14.934C165.505 14.6447 165.871 14.5 166.296 14.5C166.72 14.5 167.084 14.6447 167.385 14.934C167.693 15.2233 167.847 15.5711 167.847 15.9773C167.847 16.3836 167.693 16.7313 167.385 17.0206C167.084 17.3099 166.72 17.4546 166.296 17.4546ZM177.304 34.2955C175.937 34.2955 174.758 33.9939 173.767 33.3907C172.783 32.7813 172.022 31.9319 171.487 30.8424C170.958 29.7467 170.693 28.4726 170.693 27.0199C170.693 25.5673 170.958 24.287 171.487 23.179C172.022 22.0649 172.767 21.197 173.721 20.5753C174.681 19.9475 175.802 19.6336 177.082 19.6336C177.821 19.6336 178.55 19.7567 179.27 20.0029C179.99 20.2491 180.646 20.6492 181.237 21.2032C181.828 21.751 182.299 22.4773 182.65 23.3821C183 24.287 183.176 25.4011 183.176 26.7245V27.6478H172.244V25.7642H180.96C180.96 24.964 180.8 24.25 180.48 23.6222C180.166 22.9944 179.717 22.4989 179.132 22.1357C178.553 21.7725 177.87 21.5909 177.082 21.5909C176.214 21.5909 175.463 21.8064 174.829 22.2373C174.201 22.662 173.718 23.2159 173.38 23.8992C173.041 24.5824 172.872 25.3149 172.872 26.0966V27.3523C172.872 28.4233 173.056 29.3312 173.426 30.076C173.801 30.8147 174.321 31.3779 174.986 31.7657C175.651 32.1473 176.423 32.3381 177.304 32.3381C177.876 32.3381 178.393 32.2581 178.855 32.098C179.323 31.9319 179.726 31.6856 180.064 31.3594C180.403 31.027 180.664 30.6146 180.849 30.1222L182.954 30.7131C182.733 31.4271 182.36 32.055 181.837 32.5966C181.314 33.1321 180.667 33.5507 179.898 33.8523C179.129 34.1478 178.264 34.2955 177.304 34.2955Z" fill="white"></path>
<path d="M24.4998 48.2863C11.3837 48.2863 0.713867 37.6158 0.713867 24.5003C0.713867 11.3848 11.3843 0.714314 24.4998 0.714314C37.6154 0.714314 48.2858 11.3848 48.2858 24.5003C48.2858 37.6158 37.6154 48.2863 24.4998 48.2863ZM24.4998 2.00014C12.0929 2.00014 1.99969 12.0937 1.99969 24.5003C1.99969 36.9069 12.0932 47.0004 24.4998 47.0004C36.9064 47.0004 47 36.9069 47 24.5003C47 12.0937 36.9064 2.00014 24.4998 2.00014Z" fill="white"></path>
<path d="M14.0798 21.5981L14.2578 21.5168C13.3202 22.3066 12.1668 23.7251 11.4072 24.7132C10.1765 26.3034 9.46314 28.3586 8.95323 30.3788C12.639 26.9096 16.5762 25.4666 17.5069 25.4362C17.5189 25.4381 17.7883 27.803 16.8522 30.1072C15.8651 32.5222 13.6652 34.8732 13.6652 34.8732C14.6805 34.7119 15.6736 34.4604 16.6238 34.1023C18.252 33.4932 19.8311 32.5536 20.8585 31.073C21.313 30.4162 21.9787 28.6697 21.922 28.911C21.7398 30.6372 22.178 32.4236 22.7898 34.0763C23.1452 35.0477 23.5493 35.9946 24.1375 36.8426C24.6386 37.5696 25.2439 38.2144 25.8864 38.7948L26.4101 39C26.4047 38.964 24.3247 33.5678 26.4334 30.0386C30.2701 23.622 37.5842 26.7077 37.5842 26.7077C37.5842 26.7077 36.224 23.0421 31.2552 22.4487C41.5641 18.6026 41.0819 25.2245 41.0819 25.2245C41.0819 25.2245 44.2628 22.7485 42.4321 18.6807C40.7745 15.0003 36.5875 15.1694 35.727 15.245C34.7162 14.3574 27.0467 7.59826 19.3613 13.1991C13.9762 17.1214 8.79167 19.0363 5.79797 19.9002C4.87948 20.1653 4.686 21.3792 5.57647 21.7205C6.34017 22.0131 7.12058 22.235 7.9073 22.3829C10.0319 22.7869 12.1761 22.4871 14.0798 21.5981ZM30.1584 16.3204C30.5171 16.3345 30.8813 16.3471 31.2437 16.355C31.3089 16.6645 31.1576 16.9643 30.8872 17.0387C30.6016 17.1173 30.2815 16.9154 30.1811 16.5829C30.1594 16.4918 30.1497 16.4034 30.1584 16.3204ZM28.1108 17.0127C28.0345 16.7598 28.0093 16.5089 28.0304 16.2614C28.2414 16.2517 28.4524 16.242 28.6574 16.25C28.873 16.2552 29.0845 16.2667 29.3016 16.277C29.2907 16.4464 29.3055 16.6252 29.3594 16.8037C29.5901 17.5676 30.3801 18.0217 31.1232 17.8173C31.7778 17.6372 32.1729 17.0072 32.1059 16.338C32.2551 16.3292 32.4008 16.3266 32.5486 16.3129C32.597 17.2933 31.9465 18.2139 30.9174 18.497C29.7114 18.8285 28.4583 18.1634 28.1108 17.0127Z" fill="#35F2BC"></path>
</svg>
